<?xml version="1.0" encoding="UTF-8" standalone="no"?>
<!-- Page 1 -->

<svg
   xmlns:dc="http://purl.org/dc/elements/1.1/"
   xmlns:cc="http://creativecommons.org/ns#"
   xmlns:rdf="http://www.w3.org/1999/02/22-rdf-syntax-ns#"
   xmlns:svg="http://www.w3.org/2000/svg"
   xmlns="http://www.w3.org/2000/svg"
   xmlns:sodipodi="http://sodipodi.sourceforge.net/DTD/sodipodi-0.dtd"
   xmlns:inkscape="http://www.inkscape.org/namespaces/inkscape"
   x="0"
   y="0"
   width="374"
   height="61.599998"
   viewBox="0 0 374 61.599998"
   version="1.1"
   style="display:block"
   id="svg4073"
   sodipodi:docname="droxic.svg"
   inkscape:version="0.92.3 (2405546, 2018-03-11)">
  <metadata
     id="metadata4077">
    <rdf:RDF>
      <cc:Work
         rdf:about="">
        <dc:format>image/svg+xml</dc:format>
        <dc:type
           rdf:resource="http://purl.org/dc/dcmitype/StillImage" />
        <dc:title />
      </cc:Work>
    </rdf:RDF>
  </metadata>
  <sodipodi:namedview
     pagecolor="#ffffff"
     bordercolor="#666666"
     borderopacity="1"
     objecttolerance="10"
     gridtolerance="10"
     guidetolerance="10"
     inkscape:pageopacity="0"
     inkscape:pageshadow="2"
     inkscape:window-width="3840"
     inkscape:window-height="2083"
     id="namedview4075"
     showgrid="false"
     inkscape:zoom="3.9747368"
     inkscape:cx="-101.99811"
     inkscape:cy="83.560916"
     inkscape:window-x="3840"
     inkscape:window-y="0"
     inkscape:window-maximized="1"
     inkscape:current-layer="svg4073" />
  <defs
     id="defs4041">
    <clipPath
       id="c0_1">
      <path
         d="m 290.5,549 c 2,0 3.8,-0.5 5.4,-1.4 1.6,-1 2.9,-2.3 3.8,-3.9 1,-1.7 1.4,-3.6 1.4,-5.7 0,-2.1 -0.5,-4 -1.4,-5.7 -1,-1.7 -2.3,-3 -3.9,-3.9 -1.7,-0.9 -3.5,-1.4 -5.6,-1.4 h -7.3 v 22 z m 36.5,-9.8 c 2.4,0 4.2,-0.5 5.5,-1.6 1.2,-1 1.9,-2.5 1.9,-4.6 0,-2 -0.7,-3.5 -1.9,-4.5 -1.3,-1.1 -3.1,-1.6 -5.5,-1.6 h -7.5 v 12.3 z m 35.5,10.1 c 2,0 3.9,-0.5 5.6,-1.5 1.7,-1 3,-2.4 4,-4.1 1,-1.8 1.5,-3.7 1.5,-5.8 0,-2.1 -0.5,-4 -1.5,-5.7 -1,-1.7 -2.3,-3.1 -4,-4.1 -1.7,-0.9 -3.6,-1.4 -5.6,-1.4 -2,0 -3.9,0.5 -5.6,1.4 -1.7,1 -3.1,2.4 -4.1,4.1 -1,1.7 -1.5,3.6 -1.5,5.7 0,2.1 0.5,4 1.5,5.8 1,1.7 2.4,3.1 4.1,4.1 1.7,1 3.6,1.5 5.6,1.5 z m -86,5.3 v -33.2 h 13.8 c 3.3,0 6.3,0.7 8.9,2.1 2.6,1.4 4.7,3.4 6.2,5.9 1.5,2.5 2.2,5.4 2.2,8.6 0,3.2 -0.8,6 -2.3,8.5 -1.5,2.5 -3.5,4.5 -6.2,5.9 -2.6,1.4 -5.6,2.2 -9,2.2 z m 36.6,0 V 521.4 H 327 c 4.3,0 7.6,1 9.9,3 2.3,2 3.5,4.8 3.5,8.4 0,2.6 -0.5,4.8 -1.7,6.6 -1.1,1.9 -2.7,3.2 -4.9,4.2 l 7.3,11 h -7.2 l -5.7,-9.9 c -0.3,0.1 -0.7,0.1 -1.2,0.1 h -7.5 v 9.8 z m 69.1,0 12,-17.1 -11.2,-16.1 h 7.4 l 7.7,10.9 7.6,-10.9 h 7.5 l -11.1,15.9 12.1,17.3 h -7.7 l -8.4,-11.9 -8.4,11.9 z m 36.8,0 v -33.2 h 6.4 v 33.2 z m -56.6,0.4 c -3.2,0 -6.2,-0.7 -8.9,-2.2 -2.7,-1.6 -4.9,-3.6 -6.4,-6.2 -1.6,-2.6 -2.3,-5.5 -2.3,-8.7 0,-3.1 0.7,-6 2.3,-8.6 1.5,-2.6 3.7,-4.6 6.4,-6.1 2.7,-1.5 5.7,-2.2 8.9,-2.2 3.3,0 6.3,0.7 9,2.2 2.7,1.5 4.8,3.5 6.4,6.1 1.5,2.6 2.3,5.5 2.3,8.6 0,3.2 -0.8,6.1 -2.3,8.7 -1.6,2.6 -3.7,4.6 -6.4,6.2 -2.7,1.5 -5.7,2.2 -9,2.2 z m 85.8,0 c -3.2,0 -6.1,-0.7 -8.7,-2.2 -2.7,-1.6 -4.8,-3.6 -6.3,-6.2 -1.5,-2.6 -2.3,-5.5 -2.3,-8.7 0,-3.1 0.8,-6 2.3,-8.6 1.6,-2.6 3.7,-4.6 6.4,-6.1 2.6,-1.5 5.6,-2.2 8.8,-2.2 2.4,0 4.7,0.4 7,1.4 2.3,0.9 4.2,2.3 5.8,3.9 l -3.7,4.7 c -1.1,-1.4 -2.5,-2.5 -4.1,-3.2 -1.6,-0.8 -3.2,-1.1 -4.9,-1.1 -2,0 -3.9,0.4 -5.6,1.4 -1.7,1 -3,2.4 -4,4.1 -1,1.7 -1.5,3.6 -1.5,5.6 0,2.1 0.5,4 1.5,5.7 1,1.7 2.3,3.1 4,4.1 1.7,1 3.6,1.5 5.6,1.5 1.6,0 3.2,-0.4 4.8,-1.1 1.6,-0.7 3,-1.6 4.2,-2.9 l 3.8,4.2 c -1.8,1.8 -3.8,3.2 -6.1,4.2 -2.3,1 -4.6,1.5 -7,1.5 z"
         id="path4021"
         inkscape:connector-curvature="0" />
    </clipPath>
    <clipPath
       id="c1_1">
      <path
         d="M 447.4,499.8 414,467 l 16.2,-16.3 33.6,32.6 z M 328.5,450.7 c -8.5,0 -15.3,-6.8 -15.3,-15.3 0,-1.5 0.2,-2.9 0.6,-4.3 0.2,-0.5 0.4,-1.1 0.6,-1.5 2.3,-5.6 7.7,-9.5 14.1,-9.5 8.4,0 15.3,6.9 15.3,15.3 0,8.5 -6.9,15.3 -15.3,15.3 z m 6.3,50.4 c -2.2,0 -4.4,-0.1 -6.5,-0.2 -0.7,0 -1.3,-0.1 -2,-0.1 -6,-0.7 -11.7,-2.2 -17,-4.5 -21.9,-9.2 -37.4,-31 -37.4,-56.3 0,-31.5 23.8,-57.4 54.4,-60.8 0.7,0 1.3,-0.1 2,-0.1 2.1,-0.1 4.3,-0.2 6.5,-0.2 15.2,0.4 28.9,6.3 39.4,15.8 l 18.4,18.4 -16.2,16.2 c -11.2,-11.2 -17.1,-17.2 -17.8,-17.8 -6.8,-6 -15.7,-9.7 -25.5,-9.7 -21.1,0 -38.2,17.1 -38.2,38.2 0,19.3 14.3,35.3 32.9,37.8 1.8,0.3 3.5,0.4 5.3,0.4 9.8,0 18.7,-3.7 25.5,-9.7 1.1,-1 2.1,-2 3,-3 l 86,-86.4 c 11.3,10.7 17,16 17,16 l -90.4,90.2 c -10.5,9.5 -24.2,15.4 -39.4,15.8 z"
         id="path4024"
         inkscape:connector-curvature="0" />
    </clipPath>
    <clipPath
       id="c2_1">
      <path
         d="m 301.4,569.2 c 0.5,0 0.9,-0.1 1.2,-0.3 0.4,-0.3 0.6,-0.5 0.6,-0.9 v -0.6 h -1.7 c -0.5,0 -0.8,0.1 -1,0.2 -0.2,0.2 -0.3,0.4 -0.3,0.7 0,0.3 0.1,0.5 0.3,0.6 0.2,0.2 0.5,0.3 0.9,0.3 z m 68.3,0 c 0.5,0 0.9,-0.1 1.2,-0.3 0.4,-0.3 0.6,-0.5 0.6,-0.9 v -0.6 h -1.7 c -0.5,0 -0.8,0.1 -1,0.2 -0.2,0.2 -0.3,0.4 -0.3,0.7 0,0.3 0.1,0.5 0.3,0.6 0.2,0.2 0.5,0.3 0.9,0.3 z m 32.2,-0.2 c 0.5,0 1,-0.2 1.4,-0.5 0.3,-0.4 0.5,-0.9 0.5,-1.5 0,-0.6 -0.2,-1.1 -0.5,-1.5 -0.4,-0.4 -0.9,-0.6 -1.4,-0.6 -0.6,0 -1.1,0.2 -1.4,0.6 -0.4,0.4 -0.6,0.9 -0.6,1.5 0,0.6 0.2,1.1 0.6,1.5 0.3,0.3 0.8,0.5 1.4,0.5 z m -74.5,-0.2 c 0.6,0 1,-0.2 1.4,-0.6 0.3,-0.3 0.5,-0.8 0.5,-1.4 0,-0.6 -0.2,-1 -0.5,-1.4 -0.4,-0.3 -0.8,-0.5 -1.4,-0.5 -0.5,0 -1,0.2 -1.3,0.5 -0.3,0.4 -0.5,0.9 -0.5,1.4 0,0.6 0.2,1.1 0.5,1.4 0.3,0.4 0.8,0.6 1.3,0.6 z m 25.4,0 c 0.5,0 0.9,-0.2 1.3,-0.6 0.3,-0.3 0.5,-0.8 0.5,-1.4 0,-0.6 -0.2,-1 -0.5,-1.4 -0.4,-0.3 -0.8,-0.5 -1.3,-0.5 -0.6,0 -1,0.2 -1.4,0.5 -0.3,0.4 -0.5,0.9 -0.5,1.4 0,0.6 0.2,1.1 0.5,1.4 0.4,0.4 0.8,0.6 1.4,0.6 z m -56.7,-2.3 c 0,-0.5 -0.2,-0.9 -0.5,-1.2 -0.3,-0.3 -0.7,-0.5 -1.2,-0.5 -0.5,0 -1,0.2 -1.3,0.5 -0.3,0.3 -0.5,0.7 -0.6,1.2 z m 115.6,0 c 0,-0.5 -0.2,-0.9 -0.5,-1.2 -0.3,-0.3 -0.8,-0.5 -1.3,-0.5 -0.5,0 -0.9,0.2 -1.2,0.5 -0.4,0.3 -0.6,0.7 -0.6,1.2 z m 16.7,0 c 0,-0.5 -0.2,-0.9 -0.5,-1.2 -0.3,-0.3 -0.8,-0.5 -1.3,-0.5 -0.5,0 -0.9,0.2 -1.2,0.5 -0.4,0.3 -0.6,0.7 -0.6,1.2 z m 23.6,0 c 0,-0.5 -0.1,-0.9 -0.5,-1.2 -0.3,-0.3 -0.7,-0.5 -1.2,-0.5 -0.5,0 -0.9,0.2 -1.3,0.5 -0.3,0.3 -0.5,0.7 -0.6,1.2 z m -139.8,3.9 v -6.8 h 1.7 v 6.8 z m 34,0 v -6.8 h 1.6 v 6.8 z m 12.1,0 v -6.8 h 1.7 v 6.8 z m 31.6,0 2.4,-3.5 -2.3,-3.3 h 2 l 1.4,2.2 1.5,-2.2 h 1.9 l -2.2,3.3 2.3,3.5 H 395 l -1.6,-2.4 -1.6,2.4 z m 30,0 v -6.8 h 1.7 v 6.8 z m -125.5,0.1 c -0.7,0 -1.4,-0.2 -1.9,-0.5 -0.5,-0.3 -1,-0.7 -1.2,-1.2 -0.3,-0.5 -0.5,-1.1 -0.5,-1.8 0,-0.7 0.2,-1.3 0.5,-1.8 0.3,-0.5 0.7,-0.9 1.2,-1.2 0.5,-0.3 1.2,-0.4 1.8,-0.4 1.1,0 2,0.3 2.5,0.9 0.6,0.6 0.9,1.5 0.9,2.6 0,0.2 0,0.4 0,0.5 h -5.2 c 0.1,0.5 0.4,0.8 0.7,1.1 0.4,0.3 0.8,0.4 1.3,0.4 0.4,0 0.7,0 1,-0.2 0.4,-0.1 0.7,-0.3 0.9,-0.5 l 0.9,0.9 c -0.3,0.4 -0.8,0.6 -1.3,0.9 -0.5,0.2 -1,0.3 -1.6,0.3 z m 32.9,2.4 c -1,0 -2,-0.3 -2.9,-0.9 l 0.7,-1.2 c 0.6,0.5 1.3,0.7 2.1,0.7 0.7,0 1.1,-0.1 1.5,-0.4 0.4,-0.3 0.6,-0.8 0.6,-1.3 V 569 c -0.3,0.3 -0.6,0.6 -0.9,0.8 -0.4,0.2 -0.8,0.3 -1.3,0.3 -0.6,0 -1.2,-0.2 -1.6,-0.5 -0.5,-0.2 -0.9,-0.6 -1.1,-1.1 -0.3,-0.5 -0.4,-1.1 -0.4,-1.7 0,-0.7 0.1,-1.2 0.4,-1.7 0.2,-0.5 0.6,-0.9 1.1,-1.1 0.4,-0.3 1,-0.4 1.6,-0.4 0.4,0 0.9,0.1 1.3,0.2 0.3,0.2 0.6,0.5 0.9,0.8 v -1 h 1.7 v 6.1 c 0,0.7 -0.2,1.2 -0.5,1.7 -0.3,0.5 -0.7,0.9 -1.3,1.1 -0.5,0.3 -1.2,0.4 -1.9,0.4 z m 25.4,0 c -1.1,0 -2.1,-0.3 -3,-0.9 l 0.7,-1.2 c 0.7,0.5 1.4,0.7 2.2,0.7 0.6,0 1.1,-0.1 1.4,-0.4 0.4,-0.3 0.6,-0.8 0.6,-1.3 V 569 c -0.2,0.3 -0.5,0.6 -0.9,0.8 -0.4,0.2 -0.8,0.3 -1.3,0.3 -0.6,0 -1.1,-0.2 -1.6,-0.5 -0.5,-0.2 -0.8,-0.6 -1.1,-1.1 -0.3,-0.5 -0.4,-1.1 -0.4,-1.7 0,-0.7 0.1,-1.2 0.4,-1.7 0.3,-0.5 0.6,-0.9 1.1,-1.1 0.5,-0.3 1,-0.4 1.6,-0.4 0.5,0 0.9,0.1 1.3,0.2 0.4,0.2 0.7,0.5 0.9,0.8 v -1 h 1.7 v 6.1 c 0,0.7 -0.2,1.2 -0.5,1.7 -0.3,0.5 -0.7,0.9 -1.2,1.1 -0.6,0.3 -1.2,0.4 -1.9,0.4 z m 45.5,0 v -9.3 h 1.7 v 1.1 c 0.3,-0.4 0.6,-0.6 1,-0.8 0.4,-0.2 0.8,-0.3 1.4,-0.3 0.6,0 1.2,0.1 1.7,0.4 0.5,0.3 0.9,0.7 1.1,1.2 0.3,0.5 0.4,1.1 0.4,1.8 0,0.7 -0.1,1.3 -0.4,1.8 -0.2,0.5 -0.6,0.9 -1.1,1.2 -0.5,0.3 -1.1,0.5 -1.7,0.5 -0.5,0 -1,-0.1 -1.4,-0.3 -0.4,-0.2 -0.7,-0.5 -1,-0.9 v 3.6 z m 11.7,-2.4 c -0.7,0 -1.3,-0.2 -1.8,-0.5 -0.6,-0.3 -1,-0.7 -1.3,-1.2 -0.3,-0.5 -0.4,-1.1 -0.4,-1.8 0,-0.7 0.1,-1.3 0.4,-1.8 0.3,-0.5 0.7,-0.9 1.3,-1.2 0.5,-0.3 1.1,-0.4 1.8,-0.4 1.1,0 1.9,0.3 2.5,0.9 0.6,0.6 0.8,1.5 0.8,2.6 0,0.2 0,0.4 0,0.5 h -5.1 c 0.1,0.5 0.3,0.8 0.7,1.1 0.3,0.3 0.8,0.4 1.3,0.4 0.3,0 0.7,0 1,-0.2 0.3,-0.1 0.6,-0.3 0.9,-0.5 l 0.9,0.9 c -0.4,0.4 -0.8,0.6 -1.3,0.9 -0.5,0.2 -1.1,0.3 -1.7,0.3 z m 16.7,0 c -0.7,0 -1.3,-0.2 -1.8,-0.5 -0.6,-0.3 -1,-0.7 -1.3,-1.2 -0.3,-0.5 -0.4,-1.1 -0.4,-1.8 0,-0.7 0.1,-1.3 0.4,-1.8 0.3,-0.5 0.7,-0.9 1.3,-1.2 0.5,-0.3 1.1,-0.4 1.8,-0.4 1.1,0 1.9,0.3 2.5,0.9 0.6,0.6 0.8,1.5 0.8,2.6 0,0.2 0,0.4 0,0.5 h -5.1 c 0.1,0.5 0.3,0.8 0.7,1.1 0.3,0.3 0.8,0.4 1.3,0.4 0.3,0 0.7,0 1,-0.2 0.3,-0.1 0.6,-0.3 0.8,-0.5 l 1,0.9 c -0.4,0.4 -0.8,0.6 -1.3,0.9 -0.5,0.2 -1.1,0.3 -1.7,0.3 z m 16.3,0 c -0.7,0 -1.3,-0.2 -1.8,-0.5 -0.6,-0.3 -1,-0.7 -1.3,-1.2 -0.3,-0.5 -0.4,-1.1 -0.4,-1.8 0,-0.7 0.1,-1.3 0.4,-1.8 0.3,-0.5 0.8,-0.9 1.3,-1.2 0.5,-0.3 1.1,-0.4 1.8,-0.4 0.7,0 1.2,0.1 1.7,0.3 0.5,0.2 0.9,0.5 1.2,0.9 l -1,1 c -0.5,-0.5 -1.1,-0.8 -1.8,-0.8 -0.6,0 -1,0.2 -1.4,0.6 -0.3,0.3 -0.5,0.8 -0.5,1.4 0,0.6 0.2,1.1 0.5,1.5 0.4,0.4 0.8,0.5 1.4,0.5 0.8,0 1.4,-0.2 1.9,-0.8 l 1,0.9 c -0.3,0.4 -0.7,0.8 -1.2,1 -0.5,0.2 -1.1,0.4 -1.8,0.4 z m 7.4,0 c -0.7,0 -1.3,-0.2 -1.9,-0.5 -0.5,-0.3 -0.9,-0.7 -1.2,-1.2 -0.3,-0.5 -0.5,-1.1 -0.5,-1.8 0,-0.7 0.2,-1.3 0.5,-1.8 0.3,-0.5 0.7,-0.9 1.2,-1.2 0.6,-0.3 1.2,-0.4 1.9,-0.4 1.1,0 1.9,0.3 2.5,0.9 0.5,0.6 0.8,1.5 0.8,2.6 0,0.2 0,0.4 0,0.5 h -5.2 c 0.2,0.5 0.4,0.8 0.7,1.1 0.4,0.3 0.8,0.4 1.3,0.4 0.4,0 0.7,0 1.1,-0.2 0.3,-0.1 0.6,-0.3 0.8,-0.5 l 0.9,0.9 c -0.3,0.4 -0.8,0.6 -1.3,0.9 -0.5,0.2 -1,0.3 -1.6,0.3 z m -164.1,-0.1 v -6.8 h 1.7 v 1.3 c 0.2,-0.4 0.6,-0.8 1,-1 0.4,-0.2 0.8,-0.3 1.4,-0.4 v 1.6 c -0.1,0 -0.2,0 -0.3,0 -0.6,0 -1.1,0.2 -1.5,0.5 -0.4,0.4 -0.6,0.9 -0.6,1.5 v 3.3 z m 14.8,0.1 c -0.5,0 -0.9,-0.1 -1.3,-0.3 -0.4,-0.2 -0.6,-0.4 -0.8,-0.8 -0.2,-0.3 -0.3,-0.6 -0.3,-1 0,-0.7 0.2,-1.2 0.6,-1.5 0.5,-0.4 1.2,-0.6 2,-0.6 h 2 v -0.2 c 0,-0.4 -0.1,-0.7 -0.4,-0.9 -0.2,-0.2 -0.6,-0.3 -1.1,-0.3 -0.7,0 -1.4,0.2 -2.1,0.6 l -0.6,-1.1 c 0.5,-0.3 1,-0.5 1.5,-0.7 0.4,-0.1 0.9,-0.2 1.5,-0.2 0.9,0 1.6,0.3 2.1,0.7 0.5,0.4 0.8,1 0.8,1.8 v 4.4 h -1.7 v -0.8 c -0.2,0.3 -0.5,0.5 -0.9,0.6 -0.4,0.2 -0.8,0.3 -1.3,0.3 z m 15,-0.1 v -6.8 h 1.6 v 1.3 c 0.5,-0.9 1.4,-1.3 2.5,-1.4 0.8,0 1.5,0.3 1.9,0.8 0.5,0.4 0.7,1.1 0.7,1.9 v 4.2 H 321 v -3.8 c 0,-0.4 -0.1,-0.8 -0.4,-1.1 -0.3,-0.3 -0.7,-0.4 -1.1,-0.4 -0.6,0 -1,0.2 -1.4,0.6 -0.3,0.3 -0.5,0.8 -0.5,1.4 v 3.3 z m 53.3,0.1 c -0.5,0 -0.9,-0.1 -1.3,-0.3 -0.3,-0.2 -0.6,-0.4 -0.8,-0.8 -0.2,-0.3 -0.3,-0.6 -0.3,-1 0,-0.7 0.2,-1.2 0.7,-1.5 0.4,-0.4 1.1,-0.6 1.9,-0.6 h 2 v -0.2 c 0,-0.4 -0.1,-0.7 -0.4,-0.9 -0.2,-0.2 -0.6,-0.3 -1.1,-0.3 -0.7,0 -1.4,0.2 -2.1,0.6 l -0.6,-1.1 c 0.5,-0.3 1,-0.5 1.5,-0.7 0.4,-0.1 0.9,-0.2 1.5,-0.2 0.9,0 1.6,0.3 2.1,0.7 0.5,0.4 0.8,1 0.8,1.8 v 4.4 h -1.7 v -0.8 c -0.2,0.3 -0.5,0.5 -0.9,0.6 -0.4,0.2 -0.8,0.3 -1.3,0.3 z m 45.4,-0.1 v -6.8 h 1.7 v 1.3 c 0.2,-0.4 0.5,-0.8 0.9,-1 0.4,-0.2 0.9,-0.3 1.4,-0.4 v 1.6 c 0,0 -0.1,0 -0.2,0 -0.6,0 -1.1,0.2 -1.5,0.5 -0.4,0.4 -0.6,0.9 -0.6,1.5 v 3.3 z m 16.7,0 v -6.8 h 1.7 v 1.3 c 0.5,-0.9 1.3,-1.3 2.5,-1.4 0.8,0 1.4,0.3 1.9,0.8 0.4,0.4 0.6,1.1 0.6,1.9 v 4.2 h -1.7 v -3.8 c 0,-0.4 -0.1,-0.8 -0.4,-1.1 -0.3,-0.3 -0.6,-0.4 -1.1,-0.4 -0.6,0 -1,0.2 -1.3,0.6 -0.4,0.3 -0.5,0.8 -0.5,1.4 v 3.3 z m 25.7,0.1 c -0.5,0 -1,-0.1 -1.5,-0.3 -0.6,-0.2 -1,-0.4 -1.3,-0.7 l 0.5,-1.1 c 0.3,0.2 0.7,0.4 1.2,0.6 0.4,0.1 0.8,0.2 1.2,0.2 0.3,0 0.5,-0.1 0.7,-0.2 0.2,-0.1 0.3,-0.2 0.3,-0.4 0,-0.3 -0.1,-0.5 -0.3,-0.6 -0.2,-0.1 -0.6,-0.2 -1.1,-0.4 -0.4,-0.1 -0.8,-0.2 -1.1,-0.4 -0.3,-0.1 -0.6,-0.3 -0.8,-0.6 -0.2,-0.2 -0.3,-0.6 -0.3,-1 0,-0.7 0.3,-1.2 0.7,-1.5 0.5,-0.4 1.2,-0.6 1.9,-0.6 0.5,0 0.9,0.1 1.4,0.2 0.4,0.2 0.8,0.3 1.2,0.6 l -0.6,1.1 c -0.4,-0.1 -0.7,-0.3 -1.1,-0.4 -0.3,-0.1 -0.7,-0.2 -1,-0.2 -0.3,0 -0.5,0.1 -0.7,0.2 -0.1,0.1 -0.2,0.2 -0.2,0.4 0,0.2 0.1,0.4 0.3,0.5 0.2,0.1 0.6,0.2 1,0.4 0.5,0.1 0.9,0.3 1.2,0.4 0.3,0.1 0.6,0.3 0.8,0.6 0.2,0.3 0.4,0.7 0.4,1.1 0,0.7 -0.3,1.2 -0.8,1.5 -0.5,0.4 -1.2,0.6 -2,0.6 z M 340,568.9 c 0.6,0 1.1,-0.1 1.5,-0.4 0.5,-0.2 0.8,-0.6 1.1,-1 0.2,-0.5 0.3,-1 0.3,-1.5 0,-0.6 -0.1,-1.1 -0.4,-1.6 -0.2,-0.4 -0.6,-0.8 -1,-1 -0.5,-0.3 -1,-0.4 -1.6,-0.4 h -2 v 5.9 z m -30.9,1.6 c -0.6,0 -1.1,-0.2 -1.4,-0.5 -0.4,-0.4 -0.6,-0.9 -0.6,-1.6 v -3.3 h -1 v -1.2 h 1 V 562 h 1.7 v 1.9 h 1.9 v 1.2 h -1.9 v 3 c 0,0.4 0,0.6 0.1,0.7 0.2,0.1 0.3,0.2 0.6,0.2 0.2,0 0.6,-0.1 1,-0.3 l 0.4,1.3 c -0.6,0.3 -1.2,0.5 -1.8,0.5 z m 55.3,0 c -0.6,0 -1.1,-0.2 -1.5,-0.5 -0.4,-0.4 -0.6,-0.9 -0.6,-1.6 v -3.3 h -0.9 v -1.2 h 0.9 V 562 h 1.7 v 1.9 h 2 v 1.2 h -2 v 3 c 0,0.4 0.1,0.6 0.2,0.7 0.1,0.1 0.3,0.2 0.5,0.2 0.3,0 0.6,-0.1 1,-0.3 l 0.4,1.3 c -0.5,0.3 -1.1,0.5 -1.7,0.5 z m -28.2,-0.1 v -8.9 h 3.8 c 0.9,0 1.7,0.2 2.4,0.6 0.7,0.4 1.3,0.9 1.7,1.6 0.4,0.6 0.6,1.4 0.6,2.3 0,0.8 -0.2,1.6 -0.6,2.2 -0.4,0.7 -1,1.2 -1.7,1.6 -0.7,0.4 -1.6,0.6 -2.5,0.6 z m 46.1,0 v -8.9 h 6.6 V 563 H 384 v 2.2 h 4.4 v 1.5 H 384 v 2.2 h 5.1 v 1.5 z m -101,0.1 c -0.9,0 -1.7,-0.2 -2.4,-0.6 -0.8,-0.4 -1.3,-0.9 -1.7,-1.6 -0.5,-0.7 -0.7,-1.5 -0.7,-2.4 0,-0.8 0.2,-1.6 0.7,-2.3 0.4,-0.7 1,-1.2 1.7,-1.6 0.7,-0.4 1.5,-0.6 2.4,-0.6 0.7,0 1.3,0.1 1.9,0.4 0.7,0.2 1.2,0.6 1.6,1 l -1,1.3 c -0.3,-0.4 -0.7,-0.7 -1.1,-0.9 -0.4,-0.2 -0.9,-0.3 -1.3,-0.3 -0.6,0 -1.1,0.2 -1.6,0.4 -0.5,0.3 -0.8,0.6 -1.1,1.1 -0.3,0.5 -0.4,1 -0.4,1.5 0,0.6 0.1,1.1 0.4,1.5 0.3,0.5 0.6,0.9 1.1,1.1 0.5,0.3 1,0.4 1.6,0.4 0.4,0 0.8,-0.1 1.3,-0.3 0.4,-0.1 0.8,-0.4 1.1,-0.7 l 1.1,1.1 c -0.5,0.5 -1.1,0.8 -1.7,1.1 -0.6,0.3 -1.3,0.4 -1.9,0.4 z m 93.9,-0.1 V 561 h 1.7 v 9.4 z M 313,562.7 c -0.3,0 -0.5,-0.1 -0.7,-0.3 -0.2,-0.2 -0.2,-0.4 -0.2,-0.7 0,-0.3 0,-0.5 0.2,-0.7 0.2,-0.2 0.4,-0.3 0.7,-0.3 0.3,0 0.5,0.1 0.7,0.3 0.2,0.2 0.3,0.4 0.3,0.7 0,0.3 -0.1,0.5 -0.3,0.7 -0.2,0.2 -0.4,0.3 -0.7,0.3 z m 34,0 c -0.3,0 -0.5,-0.1 -0.7,-0.3 -0.2,-0.2 -0.3,-0.4 -0.3,-0.7 0,-0.3 0.1,-0.5 0.3,-0.7 0.2,-0.2 0.4,-0.3 0.7,-0.3 0.3,0 0.5,0.1 0.7,0.3 0.2,0.2 0.3,0.4 0.3,0.7 0,0.3 -0.1,0.5 -0.3,0.7 -0.2,0.2 -0.4,0.3 -0.7,0.3 z m 12.1,0 c -0.3,0 -0.5,-0.1 -0.7,-0.3 -0.2,-0.2 -0.3,-0.4 -0.3,-0.7 0,-0.3 0.1,-0.5 0.3,-0.7 0.2,-0.2 0.4,-0.3 0.7,-0.3 0.3,0 0.5,0.1 0.7,0.3 0.2,0.2 0.3,0.4 0.3,0.7 0,0.3 -0.1,0.5 -0.3,0.7 -0.2,0.2 -0.4,0.3 -0.7,0.3 z m 61.7,0 c -0.3,0 -0.6,-0.1 -0.7,-0.3 -0.2,-0.2 -0.3,-0.4 -0.3,-0.7 0,-0.3 0.1,-0.5 0.3,-0.7 0.1,-0.2 0.4,-0.3 0.7,-0.3 0.2,0 0.5,0.1 0.6,0.3 0.2,0.2 0.3,0.4 0.3,0.7 0,0.3 -0.1,0.5 -0.3,0.7 -0.1,0.2 -0.4,0.3 -0.6,0.3 z"
         id="path4027"
         inkscape:connector-curvature="0" />
    </clipPath>
    <clipPath
       id="c3_1">
      <path
         d="m 1008.5,471 c 2,0 3.8,-0.4 5.5,-1.4 1.6,-0.9 2.9,-2.2 3.8,-3.8 0.9,-1.7 1.4,-3.6 1.4,-5.7 0,-2.1 -0.5,-4 -1.5,-5.7 -0.9,-1.7 -2.2,-3 -3.9,-3.9 -1.6,-1 -3.5,-1.4 -5.5,-1.4 h -7.4 V 471 Z m 36.5,-9.7 c 2.4,0 4.2,-0.5 5.5,-1.6 1.3,-1 1.9,-2.6 1.9,-4.6 0,-2 -0.6,-3.6 -1.9,-4.6 -1.3,-1 -3.1,-1.5 -5.5,-1.5 h -7.5 v 12.3 z m 35.6,10.1 c 2,0 3.8,-0.5 5.5,-1.5 1.7,-1 3.1,-2.4 4.1,-4.2 1,-1.7 1.5,-3.6 1.5,-5.7 0,-2.1 -0.5,-4 -1.5,-5.7 -1,-1.7 -2.4,-3.1 -4.1,-4.1 -1.7,-1 -3.5,-1.5 -5.5,-1.5 -2,0 -3.9,0.5 -5.7,1.5 -1.7,1 -3.1,2.4 -4.1,4.1 -1,1.7 -1.5,3.6 -1.5,5.7 0,2.1 0.5,4 1.6,5.7 1,1.8 2.4,3.2 4.1,4.2 1.7,1 3.6,1.5 5.6,1.5 z m -86,5.2 v -33.1 h 13.8 c 3.3,0 6.2,0.7 8.9,2.1 2.6,1.4 4.6,3.4 6.1,5.9 1.5,2.5 2.2,5.4 2.2,8.6 0,3.1 -0.7,6 -2.2,8.5 -1.5,2.5 -3.6,4.5 -6.2,5.9 -2.7,1.4 -5.7,2.1 -9.1,2.1 z m 36.6,0 v -33.1 h 13.8 c 4.3,0 7.6,1 10,3 2.3,2 3.5,4.8 3.5,8.4 0,2.6 -0.6,4.8 -1.7,6.6 -1.1,1.9 -2.8,3.2 -4.9,4.1 l 7.3,11 h -7.3 l -5.7,-9.8 c -0.3,0.1 -0.6,0.1 -1.2,0.1 h -7.5 v 9.7 z m 69.1,0 11.9,-17 -11.2,-16.1 h 7.5 l 7.6,10.9 7.6,-10.9 h 7.6 l -11.2,15.8 12.1,17.3 h -7.6 l -8.5,-11.8 -8.4,11.8 z m 36.8,0 v -33.1 h 6.3 v 33.1 z m -56.6,0.5 c -3.3,0 -6.3,-0.7 -9,-2.3 -2.7,-1.5 -4.8,-3.5 -6.4,-6.1 -1.5,-2.7 -2.3,-5.5 -2.3,-8.7 0,-3.1 0.8,-6 2.3,-8.6 1.6,-2.6 3.7,-4.6 6.4,-6.1 2.7,-1.5 5.7,-2.2 9,-2.2 3.3,0 6.3,0.7 9,2.2 2.7,1.5 4.8,3.5 6.3,6.1 1.6,2.6 2.4,5.5 2.4,8.6 0,3.2 -0.8,6 -2.4,8.7 -1.5,2.6 -3.6,4.6 -6.3,6.1 -2.7,1.6 -5.7,2.3 -9,2.3 z m 85.8,0 c -3.2,0 -6.1,-0.7 -8.8,-2.3 -2.7,-1.5 -4.7,-3.5 -6.3,-6.1 -1.5,-2.7 -2.2,-5.5 -2.2,-8.7 0,-3.1 0.7,-6 2.3,-8.6 1.5,-2.6 3.6,-4.6 6.3,-6.1 2.7,-1.5 5.6,-2.2 8.9,-2.2 2.4,0 4.7,0.4 7,1.4 2.2,0.9 4.2,2.2 5.8,3.9 l -3.7,4.6 c -1.2,-1.3 -2.6,-2.4 -4.2,-3.1 -1.5,-0.8 -3.2,-1.2 -4.8,-1.2 -2.1,0 -3.9,0.5 -5.6,1.5 -1.7,1 -3.1,2.3 -4.1,4.1 -0.9,1.7 -1.4,3.6 -1.4,5.6 0,2.1 0.5,4 1.4,5.7 1,1.7 2.4,3.1 4.1,4 1.7,1 3.5,1.5 5.6,1.5 1.6,0 3.2,-0.3 4.8,-1 1.5,-0.7 3,-1.7 4.2,-2.9 l 3.7,4.2 c -1.7,1.7 -3.7,3.1 -6,4.2 -2.3,1 -4.7,1.5 -7,1.5 z"
         id="path4030"
         inkscape:connector-curvature="0" />
    </clipPath>
    <clipPath
       id="c4_1">
      <path
         d="m 963.6,501.1 -16.4,-15.3 8,-7.6 16.5,15.2 z m -56.1,-21.4 c -4.2,0 -7.6,-3.4 -7.6,-7.6 0,-0.8 0.1,-1.5 0.3,-2.2 0,-0.3 0.1,-0.5 0.2,-0.8 1.2,-2.7 3.9,-4.7 7.1,-4.7 4.2,0 7.6,3.4 7.6,7.7 0,4.2 -3.4,7.6 -7.6,7.6 z m 2.4,22.9 c -1,0 -2.1,0 -3.1,-0.1 -0.3,0 -0.6,0 -0.9,-0.1 -2.9,-0.3 -5.6,-1 -8.1,-2.1 -10.5,-4.4 -17.8,-14.7 -17.8,-26.7 0,-15 11.3,-27.3 25.9,-28.9 0.3,0 0.6,0 0.9,-0.1 1,0 2.1,0 3.1,0 7.2,0.1 13.8,3 18.8,7.5 l 8.7,8.7 -7.7,7.7 c -5.3,-5.3 -8.1,-8.2 -8.5,-8.5 -3.2,-2.8 -7.4,-4.6 -12.1,-4.6 -10,0 -18.2,8.2 -18.2,18.2 0,9.1 6.8,16.7 15.7,18 0.8,0.1 1.7,0.1 2.5,0.1 4.7,0 8.9,-1.7 12.1,-4.6 0.5,-0.4 1,-0.9 1.5,-1.4 l 40.9,-41.1 c 5.4,5.1 8.1,7.7 8.1,7.7 l -43,42.8 c -5,4.5 -11.6,7.3 -18.8,7.5 z"
         id="path4033"
         inkscape:connector-curvature="0" />
    </clipPath>
    <clipPath
       id="c5_1">
      <path
         d="m 1030.3,499.4 c 0.6,0 1.2,-0.2 1.7,-0.5 0.5,-0.4 0.8,-0.8 0.8,-1.2 v -0.9 h -2.4 c -0.7,0 -1.1,0.1 -1.4,0.3 -0.3,0.2 -0.5,0.5 -0.5,0.9 0,0.4 0.2,0.7 0.5,1 0.3,0.2 0.7,0.4 1.3,0.4 z m 96.4,0 c 0.7,0 1.3,-0.2 1.8,-0.5 0.5,-0.4 0.7,-0.8 0.8,-1.2 v -0.9 h -2.5 c -0.6,0 -1.1,0.1 -1.4,0.3 -0.3,0.2 -0.4,0.5 -0.4,0.9 0,0.4 0.1,0.7 0.4,1 0.3,0.2 0.8,0.4 1.3,0.4 z m 45.4,-0.3 c 0.8,0 1.5,-0.3 2,-0.8 0.5,-0.6 0.8,-1.3 0.8,-2.2 0,-0.8 -0.3,-1.5 -0.8,-2.1 -0.5,-0.5 -1.2,-0.8 -2,-0.8 -0.8,0 -1.4,0.3 -2,0.8 -0.5,0.6 -0.7,1.3 -0.7,2.1 0,0.9 0.2,1.6 0.7,2.2 0.6,0.5 1.2,0.8 2,0.8 z M 1067,498.7 c 0.8,0 1.4,-0.2 1.9,-0.8 0.5,-0.5 0.7,-1.2 0.7,-2 0,-0.8 -0.2,-1.5 -0.7,-2 -0.5,-0.5 -1.1,-0.8 -1.9,-0.8 -0.8,0 -1.4,0.3 -1.9,0.8 -0.4,0.5 -0.7,1.2 -0.7,2 0,0.8 0.3,1.5 0.7,2 0.5,0.6 1.1,0.8 1.9,0.8 z m 35.8,0 c 0.8,0 1.4,-0.2 1.9,-0.8 0.4,-0.5 0.7,-1.2 0.7,-2 0,-0.8 -0.3,-1.5 -0.7,-2 -0.5,-0.5 -1.1,-0.8 -1.9,-0.8 -0.8,0 -1.4,0.3 -1.9,0.8 -0.5,0.5 -0.7,1.2 -0.7,2 0,0.8 0.2,1.5 0.7,2 0.5,0.6 1.1,0.8 1.9,0.8 z m -80,-3.3 c 0,-0.7 -0.2,-1.3 -0.7,-1.7 -0.4,-0.4 -1,-0.7 -1.8,-0.7 -0.7,0 -1.3,0.3 -1.7,0.7 -0.5,0.4 -0.8,1 -0.9,1.7 z m 163.2,0 c 0,-0.7 -0.3,-1.3 -0.7,-1.7 -0.5,-0.4 -1.1,-0.7 -1.8,-0.7 -0.7,0 -1.3,0.3 -1.8,0.7 -0.4,0.4 -0.7,1 -0.8,1.7 z m 23.6,0 c 0,-0.7 -0.3,-1.3 -0.7,-1.7 -0.5,-0.4 -1.1,-0.7 -1.8,-0.7 -0.7,0 -1.3,0.3 -1.8,0.7 -0.5,0.4 -0.7,1 -0.9,1.7 z m 33.4,0 c 0,-0.7 -0.3,-1.3 -0.7,-1.7 -0.5,-0.4 -1.1,-0.7 -1.8,-0.7 -0.7,0 -1.3,0.3 -1.8,0.7 -0.5,0.4 -0.7,1 -0.9,1.7 z m -197.5,5.7 v -9.8 h 2.4 v 9.8 z m 48,0 v -9.8 h 2.4 v 9.8 z m 17.1,0 v -9.8 h 2.4 v 9.8 z m 44.6,0 3.4,-5 -3.2,-4.8 h 2.8 l 2,3.2 2.1,-3.2 h 2.6 l -3.1,4.8 3.4,5 h -2.8 l -2.2,-3.4 -2.3,3.4 z m 42.4,0 v -9.8 h 2.4 v 9.8 z m -177.2,0.1 c -1,0 -1.9,-0.2 -2.7,-0.7 -0.8,-0.4 -1.3,-1 -1.8,-1.7 -0.4,-0.8 -0.6,-1.6 -0.6,-2.6 0,-1 0.2,-1.8 0.7,-2.6 0.4,-0.8 1,-1.3 1.7,-1.8 0.8,-0.4 1.6,-0.6 2.6,-0.6 1.6,0 2.7,0.4 3.5,1.3 0.8,0.9 1.2,2.2 1.2,3.8 0,0.3 0,0.6 0,0.7 h -7.2 c 0.1,0.7 0.4,1.3 0.9,1.6 0.5,0.4 1.1,0.6 1.9,0.6 0.5,0 0.9,0 1.4,-0.2 0.5,-0.2 0.9,-0.5 1.2,-0.9 l 1.3,1.4 c -0.5,0.5 -1.1,0.9 -1.8,1.2 -0.7,0.3 -1.5,0.5 -2.3,0.5 z m 46.5,3.5 c -1.5,0 -2.9,-0.4 -4.2,-1.3 l 1,-1.7 c 0.9,0.7 1.9,1 3,1 0.9,0 1.6,-0.2 2.1,-0.6 0.6,-0.5 0.8,-1.1 0.8,-1.9 V 499 c -0.3,0.5 -0.7,0.9 -1.3,1.2 -0.5,0.3 -1.1,0.4 -1.8,0.4 -0.9,0 -1.6,-0.2 -2.3,-0.6 -0.6,-0.4 -1.1,-1 -1.5,-1.7 -0.4,-0.7 -0.6,-1.5 -0.6,-2.4 0,-1 0.2,-1.8 0.6,-2.5 0.4,-0.7 0.9,-1.2 1.5,-1.6 0.7,-0.4 1.4,-0.6 2.3,-0.6 0.7,0 1.3,0.1 1.8,0.4 0.6,0.3 1,0.6 1.3,1.1 v -1.4 h 2.4 v 8.8 c 0,1 -0.2,1.8 -0.6,2.5 -0.4,0.7 -1,1.2 -1.8,1.6 -0.8,0.3 -1.7,0.5 -2.7,0.5 z m 35.7,0 c -1.5,0 -2.8,-0.4 -4.1,-1.3 l 1,-1.7 c 0.9,0.7 1.9,1 3,1 0.9,0 1.6,-0.2 2.1,-0.6 0.5,-0.5 0.8,-1.1 0.8,-1.9 V 499 c -0.3,0.5 -0.8,0.9 -1.3,1.2 -0.5,0.3 -1.1,0.4 -1.8,0.4 -0.9,0 -1.6,-0.2 -2.3,-0.6 -0.7,-0.4 -1.2,-1 -1.5,-1.7 -0.4,-0.7 -0.6,-1.5 -0.6,-2.4 0,-1 0.2,-1.8 0.6,-2.5 0.3,-0.7 0.8,-1.2 1.5,-1.6 0.7,-0.4 1.4,-0.6 2.3,-0.6 0.7,0 1.3,0.1 1.8,0.4 0.5,0.3 1,0.6 1.3,1.1 v -1.4 h 2.4 v 8.8 c 0,1 -0.2,1.8 -0.7,2.5 -0.4,0.7 -1,1.2 -1.8,1.6 -0.7,0.3 -1.6,0.5 -2.7,0.5 z m 64.4,-0.1 v -13.3 h 2.4 v 1.6 c 0.3,-0.6 0.8,-1 1.3,-1.3 0.6,-0.3 1.2,-0.4 2,-0.4 0.9,0 1.7,0.2 2.4,0.6 0.7,0.5 1.2,1 1.6,1.8 0.4,0.8 0.6,1.6 0.6,2.6 0,1 -0.2,1.9 -0.6,2.6 -0.3,0.8 -0.9,1.3 -1.6,1.7 -0.7,0.5 -1.5,0.7 -2.4,0.7 -0.7,0 -1.4,-0.2 -1.9,-0.5 -0.6,-0.2 -1.1,-0.7 -1.4,-1.2 v 5.1 z m 16.5,-3.4 c -1,0 -1.9,-0.2 -2.6,-0.7 -0.8,-0.4 -1.4,-1 -1.8,-1.7 -0.4,-0.8 -0.6,-1.6 -0.6,-2.6 0,-1 0.2,-1.8 0.6,-2.6 0.4,-0.8 1,-1.3 1.8,-1.8 0.7,-0.4 1.6,-0.6 2.6,-0.6 1.5,0 2.7,0.4 3.5,1.3 0.8,0.9 1.2,2.2 1.2,3.8 0,0.3 0,0.6 0,0.7 h -7.3 c 0.2,0.7 0.5,1.3 1,1.6 0.5,0.4 1.1,0.6 1.8,0.6 0.5,0 1,0 1.5,-0.2 0.4,-0.2 0.8,-0.5 1.2,-0.9 l 1.3,1.4 c -0.5,0.5 -1.1,0.9 -1.8,1.2 -0.7,0.3 -1.5,0.5 -2.4,0.5 z m 23.6,0 c -1,0 -1.9,-0.2 -2.6,-0.7 -0.8,-0.4 -1.4,-1 -1.8,-1.7 -0.4,-0.8 -0.6,-1.6 -0.6,-2.6 0,-1 0.2,-1.8 0.6,-2.6 0.4,-0.8 1,-1.3 1.8,-1.8 0.7,-0.4 1.6,-0.6 2.5,-0.6 1.6,0 2.8,0.4 3.6,1.3 0.8,0.9 1.2,2.2 1.2,3.8 0,0.3 0,0.6 -0.1,0.7 h -7.2 c 0.2,0.7 0.5,1.3 1,1.6 0.5,0.4 1.1,0.6 1.8,0.6 0.5,0 1,0 1.4,-0.2 0.5,-0.2 0.9,-0.5 1.2,-0.9 l 1.3,1.4 c -0.5,0.5 -1.1,0.9 -1.8,1.2 -0.7,0.3 -1.4,0.5 -2.3,0.5 z m 23,0 c -1,0 -1.8,-0.2 -2.6,-0.7 -0.8,-0.4 -1.3,-1 -1.8,-1.7 -0.4,-0.8 -0.6,-1.6 -0.6,-2.6 0,-1 0.2,-1.9 0.7,-2.6 0.4,-0.8 1,-1.4 1.7,-1.8 0.8,-0.4 1.6,-0.6 2.6,-0.6 0.9,0 1.7,0.2 2.4,0.5 0.7,0.3 1.3,0.7 1.7,1.3 l -1.4,1.4 c -0.7,-0.8 -1.5,-1.1 -2.6,-1.1 -0.8,0 -1.4,0.3 -1.9,0.8 -0.5,0.5 -0.8,1.2 -0.8,2.1 0,0.9 0.3,1.6 0.8,2.1 0.5,0.5 1.1,0.8 1.9,0.8 1.2,0 2.1,-0.4 2.6,-1.1 l 1.5,1.2 c -0.4,0.6 -1,1.1 -1.7,1.5 -0.7,0.3 -1.6,0.5 -2.5,0.5 z m 10.4,0 c -1,0 -1.9,-0.2 -2.6,-0.7 -0.8,-0.4 -1.4,-1 -1.8,-1.7 -0.4,-0.8 -0.6,-1.6 -0.6,-2.6 0,-1 0.2,-1.8 0.6,-2.6 0.4,-0.8 1,-1.3 1.8,-1.8 0.7,-0.4 1.6,-0.6 2.6,-0.6 1.5,0 2.7,0.4 3.5,1.3 0.8,0.9 1.2,2.2 1.2,3.8 0,0.3 0,0.6 -0.1,0.7 h -7.2 c 0.2,0.7 0.5,1.3 1,1.6 0.5,0.4 1.1,0.6 1.8,0.6 0.5,0 1,0 1.4,-0.2 0.5,-0.2 0.9,-0.5 1.2,-0.9 l 1.3,1.4 c -0.5,0.5 -1.1,0.9 -1.8,1.2 -0.7,0.3 -1.4,0.5 -2.3,0.5 z m -231.7,-0.1 v -9.8 h 2.4 v 1.9 c 0.3,-0.7 0.8,-1.2 1.4,-1.5 0.5,-0.3 1.2,-0.5 1.9,-0.5 v 2.3 c -0.1,0 -0.2,0 -0.3,0 -0.8,0 -1.5,0.2 -2.1,0.7 -0.6,0.5 -0.9,1.2 -0.9,2.1 v 4.8 z m 20.9,0.1 c -0.7,0 -1.3,-0.1 -1.8,-0.4 -0.5,-0.3 -0.9,-0.6 -1.2,-1.1 -0.3,-0.5 -0.4,-1 -0.4,-1.6 0,-0.9 0.3,-1.6 0.9,-2.1 0.7,-0.5 1.6,-0.8 2.8,-0.8 h 2.8 v -0.3 c 0,-0.5 -0.1,-1 -0.5,-1.3 -0.4,-0.3 -1,-0.5 -1.7,-0.5 -0.9,0 -1.9,0.3 -2.9,0.9 l -0.8,-1.6 c 0.7,-0.4 1.4,-0.7 2,-0.9 0.7,-0.2 1.4,-0.3 2.3,-0.3 1.2,0 2.2,0.3 2.9,0.9 0.7,0.6 1.1,1.5 1.1,2.6 v 6.4 h -2.3 v -1.2 c -0.4,0.4 -0.8,0.7 -1.4,1 -0.5,0.2 -1.1,0.3 -1.8,0.3 z m 21.1,-0.1 v -9.8 h 2.4 v 1.8 c 0.7,-1.3 1.9,-1.9 3.5,-1.9 1.2,0 2,0.3 2.7,1 0.6,0.7 1,1.6 1,2.8 v 6.1 h -2.4 v -5.4 c 0,-0.7 -0.2,-1.3 -0.6,-1.7 -0.4,-0.4 -0.9,-0.6 -1.6,-0.6 -0.8,0 -1.4,0.3 -1.9,0.8 -0.5,0.6 -0.7,1.2 -0.7,2.1 v 4.8 z m 75.3,0.1 c -0.6,0 -1.2,-0.1 -1.8,-0.4 -0.5,-0.3 -0.9,-0.6 -1.2,-1.1 -0.2,-0.5 -0.4,-1 -0.4,-1.6 0,-0.9 0.3,-1.6 1,-2.1 0.6,-0.5 1.6,-0.8 2.7,-0.8 h 2.9 v -0.3 c 0,-0.5 -0.2,-1 -0.6,-1.3 -0.4,-0.3 -0.9,-0.5 -1.6,-0.5 -1,0 -1.9,0.3 -2.9,0.9 l -0.9,-1.6 c 0.8,-0.4 1.5,-0.7 2.1,-0.9 0.6,-0.2 1.4,-0.3 2.2,-0.3 1.3,0 2.3,0.3 3,0.9 0.7,0.6 1,1.5 1,2.6 l 0.1,6.4 h -2.4 v -1.2 c -0.3,0.4 -0.8,0.7 -1.3,1 -0.5,0.2 -1.2,0.3 -1.9,0.3 z m 64.1,-0.1 v -9.8 h 2.4 v 1.9 c 0.4,-0.7 0.8,-1.2 1.4,-1.5 0.5,-0.3 1.2,-0.5 2,-0.5 v 2.3 c -0.1,0 -0.3,0 -0.4,0 -0.8,0 -1.5,0.2 -2.1,0.7 -0.6,0.5 -0.9,1.2 -0.9,2.1 v 4.8 z m 23.6,0 v -9.8 h 2.4 v 1.8 c 0.7,-1.3 1.8,-1.9 3.5,-1.9 1.1,0 2,0.3 2.7,1 0.6,0.7 0.9,1.6 0.9,2.8 v 6.1 h -2.4 v -5.4 c 0,-0.7 -0.2,-1.3 -0.5,-1.7 -0.4,-0.4 -1,-0.6 -1.6,-0.6 -0.8,0 -1.5,0.3 -1.9,0.8 -0.5,0.6 -0.7,1.2 -0.7,2.1 v 4.8 z m 36.4,0.1 c -0.8,0 -1.5,-0.1 -2.3,-0.4 -0.7,-0.2 -1.3,-0.6 -1.8,-1 l 0.8,-1.7 c 0.5,0.4 1,0.7 1.6,0.9 0.6,0.2 1.2,0.3 1.7,0.3 0.5,0 0.8,0 1.1,-0.2 0.3,-0.1 0.4,-0.4 0.4,-0.7 0,-0.3 -0.2,-0.6 -0.5,-0.7 -0.3,-0.2 -0.8,-0.4 -1.5,-0.6 -0.6,-0.2 -1.2,-0.4 -1.6,-0.6 -0.4,-0.2 -0.7,-0.5 -1,-0.9 -0.4,-0.3 -0.5,-0.8 -0.5,-1.5 0,-0.9 0.3,-1.7 1,-2.2 0.8,-0.5 1.6,-0.7 2.7,-0.7 0.6,0 1.3,0.1 1.9,0.2 0.6,0.2 1.2,0.5 1.7,0.8 l -0.9,1.7 c -0.4,-0.3 -0.9,-0.5 -1.4,-0.6 -0.6,-0.2 -1,-0.3 -1.4,-0.3 -0.5,0 -0.8,0.1 -1,0.2 -0.3,0.2 -0.4,0.4 -0.4,0.7 0,0.3 0.2,0.5 0.5,0.7 0.3,0.2 0.8,0.3 1.4,0.5 0.7,0.2 1.2,0.4 1.7,0.6 0.4,0.2 0.8,0.5 1.1,0.9 0.4,0.4 0.5,1 0.5,1.6 0,1 -0.3,1.7 -1.1,2.2 -0.7,0.5 -1.6,0.8 -2.7,0.8 z m -165.4,-2.3 c 0.8,0 1.5,-0.2 2.1,-0.5 0.6,-0.4 1.1,-0.9 1.5,-1.5 0.3,-0.7 0.5,-1.4 0.5,-2.2 0,-0.8 -0.2,-1.6 -0.5,-2.2 -0.4,-0.7 -0.9,-1.2 -1.6,-1.6 -0.6,-0.3 -1.3,-0.5 -2.1,-0.5 h -2.8 v 8.5 z m -43.6,2.3 c -0.9,0 -1.6,-0.3 -2.1,-0.8 -0.5,-0.4 -0.8,-1.2 -0.8,-2.1 v -4.9 h -1.4 v -1.7 h 1.4 V 489 h 2.4 v 2.7 h 2.8 v 1.7 h -2.8 v 4.4 c 0,0.5 0,0.8 0.2,1 0.2,0.2 0.4,0.3 0.8,0.3 0.3,0 0.8,-0.2 1.4,-0.4 l 0.5,1.8 c -0.8,0.5 -1.6,0.7 -2.4,0.7 z m 78,0 c -0.8,0 -1.5,-0.3 -2.1,-0.8 -0.5,-0.4 -0.8,-1.2 -0.8,-2.1 v -4.9 h -1.4 v -1.7 h 1.4 V 489 h 2.4 v 2.7 h 2.8 v 1.7 h -2.8 v 4.4 c 0,0.5 0.1,0.8 0.2,1 0.2,0.2 0.5,0.3 0.8,0.3 0.4,0 0.8,-0.2 1.4,-0.4 l 0.6,1.8 c -0.8,0.5 -1.6,0.7 -2.5,0.7 z m -39.8,-0.1 v -12.9 h 5.3 c 1.3,0 2.5,0.3 3.5,0.9 1,0.5 1.8,1.3 2.4,2.2 0.5,1 0.8,2.1 0.8,3.4 0,1.2 -0.3,2.3 -0.9,3.3 -0.5,0.9 -1.3,1.7 -2.4,2.3 -1,0.5 -2.2,0.8 -3.5,0.8 z m 65.1,0 v -12.9 h 9.4 v 2.2 h -7 v 3.2 h 6.2 v 2.1 h -6.2 v 3.2 h 7.2 v 2.2 z m -142.7,0.2 c -1.2,0 -2.3,-0.3 -3.3,-0.9 -1.1,-0.6 -1.9,-1.4 -2.5,-2.4 -0.6,-1 -0.8,-2.1 -0.8,-3.4 0,-1.2 0.3,-2.3 0.9,-3.3 0.5,-1 1.4,-1.8 2.4,-2.4 1,-0.5 2.2,-0.8 3.4,-0.8 1,0 1.9,0.2 2.7,0.5 0.9,0.4 1.7,0.9 2.3,1.6 l -1.4,1.7 c -0.5,-0.5 -1,-0.9 -1.6,-1.2 -0.7,-0.3 -1.3,-0.4 -1.9,-0.4 -0.8,0 -1.5,0.2 -2.2,0.5 -0.7,0.4 -1.2,1 -1.6,1.6 -0.3,0.7 -0.5,1.4 -0.5,2.2 0,0.8 0.2,1.5 0.5,2.2 0.4,0.7 0.9,1.2 1.6,1.6 0.7,0.4 1.4,0.6 2.2,0.6 0.6,0 1.2,-0.2 1.8,-0.5 0.6,-0.2 1.2,-0.6 1.7,-1.1 l 1.4,1.6 c -0.7,0.7 -1.5,1.3 -2.3,1.7 -0.9,0.4 -1.8,0.6 -2.8,0.6 z m 132.6,-0.2 v -13.6 h 2.4 v 13.6 z m -87.7,-11.2 c -0.4,0 -0.7,-0.1 -1,-0.4 -0.3,-0.3 -0.4,-0.6 -0.4,-1 0,-0.4 0.1,-0.8 0.4,-1 0.3,-0.3 0.6,-0.4 1,-0.4 0.4,0 0.7,0.1 0.9,0.4 0.3,0.2 0.4,0.6 0.4,1 0,0.4 -0.1,0.7 -0.4,1 -0.2,0.3 -0.5,0.4 -0.9,0.4 z m 47.9,0 c -0.3,0 -0.7,-0.1 -0.9,-0.4 -0.3,-0.3 -0.4,-0.6 -0.4,-1 0,-0.4 0.1,-0.8 0.4,-1 0.2,-0.3 0.6,-0.4 0.9,-0.4 0.4,0 0.8,0.1 1,0.4 0.3,0.2 0.4,0.6 0.4,1 0,0.4 -0.1,0.7 -0.4,1 -0.2,0.3 -0.6,0.4 -1,0.4 z m 17.2,0 c -0.4,0 -0.8,-0.1 -1,-0.4 -0.3,-0.3 -0.4,-0.6 -0.4,-1 0,-0.4 0.1,-0.8 0.4,-1 0.2,-0.3 0.6,-0.4 1,-0.4 0.3,0 0.7,0.1 0.9,0.4 0.3,0.2 0.4,0.6 0.4,1 0,0.4 -0.1,0.7 -0.4,1 -0.2,0.3 -0.6,0.4 -0.9,0.4 z m 87,0 c -0.4,0 -0.7,-0.1 -1,-0.4 -0.2,-0.3 -0.4,-0.6 -0.4,-1 0,-0.4 0.2,-0.8 0.4,-1 0.3,-0.3 0.6,-0.4 1,-0.4 0.4,0 0.7,0.1 1,0.4 0.2,0.2 0.4,0.6 0.4,1 0,0.4 -0.2,0.7 -0.4,1 -0.3,0.3 -0.6,0.4 -1,0.4 z"
         id="path4036"
         inkscape:connector-curvature="0" />
    </clipPath>
    <style
       type="text/css"
       id="style4039"><![CDATA[

.g0_1{
fill: #FFFFFF;
}
.g1_1{
}
.g2_1{
fill: #02CBC9;
}
.g3_1{
fill: none;
stroke: #F0F0F0;
stroke-width: 1.5277778;
stroke-linecap: square;
stroke-linejoin: miter;
}

]]></style>
  </defs>
  <g
     clip-path="url(#c3_1)"
     id="g4061"
     transform="translate(-880,-443.1)"
     style="fill:#ffffff">
    <path
       d="M 986.9,435.4 H 1187 v 49.3 H 986.9 Z"
       class="g1_1"
       id="path4059"
       inkscape:connector-curvature="0"
       style="fill:#ffffff" />
  </g>
  <g
     clip-path="url(#c4_1)"
     id="g4065"
     transform="translate(-880,-443.1)">
    <path
       d="m 872.4,436.9 h 106.9 v 73.3 H 872.4 Z"
       class="g2_1"
       id="path4063"
       inkscape:connector-curvature="0"
       style="fill:#02cbc9" />
  </g>
  <g
     clip-path="url(#c5_1)"
     id="g4069"
     transform="translate(-880,-443.1)"
     style="fill:#ffffff">
    <path
       d="m 987.5,479.4 h 274.2 v 33 H 987.5 Z"
       class="g1_1"
       id="path4067"
       inkscape:connector-curvature="0"
       style="fill:#ffffff" />
  </g>
</svg>
