<svg xmlns="http://www.w3.org/2000/svg" viewBox="0 0 286.2 58.1"><title>SiteGround</title><path d="M67.3,15.2C63,8,53.2,12.1,55.3,20.4c2.8,11.2,16.4,13.9,21.4,23.8,2.8,5.5,1,10.9-3.2,13.3s-11.6,3.4-16.1.1c-2.2-1.7-2.1-2.9-3.2.2-.4,1-1,2.1-2.3,1s-1.9-6.9,1.4-9.1,3.5-.5,5.4,1.4c4.7,3.9,10.7,2.7,12.2-.5s0-5.3-2-7.5-7.4-6-11.2-10.4-8.7-12.2-6.3-18.6,8.3-10.7,15.6-7c4.3,2.2,8.5,7.1,6.1,12.1-1.7,3.4-6.8,4.5-9.2,1s4.5-3.1,3.3-5.1Z" transform="translate(-4.3 -4.3)" fill="#fff" fill-rule="evenodd"></path><path d="M86.3,26.8c.2,6.1-6.8,5.7-7-.2a3.1,3.1,0,0,1,3.5-3.3,4.1,4.1,0,0,1,2.2,1,3.5,3.5,0,0,1,1.2,2.5Z" transform="translate(-4.3 -4.3)" fill="#fff" fill-rule="evenodd"></path><path d="M79.9,40.6l-.3.2c-3,1.7-2.1-1.7-.5-3.7s3-2.8,4.2-2.6a2.4,2.4,0,0,1,2.2,1.8c.8,3.9-3.6,14.8,1.1,17.7a2,2,0,0,0,2.7-.4c.9-1,1-2.7,2.1-3s.9.1,1.1,1.4c.3,3.9-1.4,9.5-6.8,7.6s-4.6-11.3-4.5-16.3c0-.3-.1-3.3-1.2-2.7Z" transform="translate(-4.3 -4.3)" fill="#fff" fill-rule="evenodd"></path><path d="M114.3,33.8a2.3,2.3,0,0,0-2.3-1.6l-5.6.3-6.3.3,1-9q1.4-13.1.1-16.1T98.2,5.8c-2.2.4-2.8,4.3-3,11.5a156.7,156.7,0,0,0,.8,16.1l-3.2.9a12.8,12.8,0,0,0-2.6,1,1.1,1.1,0,0,0-.5,1.1,5.3,5.3,0,0,0,.5,2l4,9.2,3.7,8.4q1.6,3.8,4.3,3.7t2.5-.6-.4-2.5A43.3,43.3,0,0,1,101,46.1a71.1,71.1,0,0,1-.4-8.4c5.5-1.3,9.2-.9,12.4-1.8h.2c1.2-.8.5-.4,1-.8A1,1,0,0,0,114.3,33.8Zm-16.5,17-.2.2h-.3l-.4-.9c-.3-.7-1.6-5.1-1.6-5.1s-1.1-4.1-1.3-4.5a1.3,1.3,0,0,1,0-.7,1.7,1.7,0,0,1,.4-.6,5.8,5.8,0,0,1,1.3-.6H96l.2.3v.9l.3,2.1,1,6.2.3,2.3Z" transform="translate(-4.3 -4.3)" fill="#fff"></path><path d="M133.4,53c-3.4,4.2-8.2,8.1-13.5,6.6-3.1-1.1-5.1-4.1-6.1-7.8a24,24,0,0,1-.2-11c1.2-5.6,4.6-10.2,8.5-10.2,7.4.7,11.2,8.9,7.4,14.7-2.1,3.2-6.5,4.8-8.6,5.9s-1.4.6-1.3,2.1c.3,3.7,6.6,3.7,10.6-4.6.4-.8,2.9-4,4.5-3.1,3.4,2.1-.9,6.9-1.3,7.4Zm-15.5-5.1c4.4-1.4,8.1-5.3,8.4-7.4.6-4-5.5-7.4-7.7-.9-.6,1.7-.7,5.3-.7,8.2Z" transform="translate(-4.3 -4.3)" fill="#fff" fill-rule="evenodd"></path><path d="M163.2,38.4c-.3,3.3,4.7,20.6,1.1,20.9s-3.5.4-4-.8,1.6-10-.2-7.3c-.4.6-.3.7-1,1.8-5.9,10.6-14,7.8-18.7-.8A35.7,35.7,0,0,1,136.9,32c1.3-12.3,6.6-28.5,19-25.9,9.8,2.1,3,15.2-.4,11.8C147.4.2,131.3,43,149.2,53.3c5.2,3,9.6-6.7,8.5-11s-.9-3.1-2.4-2.7-5.1,3.8-6.3,2.7-2.1-6.4.6-6.5,5.1.9,8.9-3.7,6.3-2.9,5.7,1.6c-.3,2-.8,3.1-1,4.6Z" transform="translate(-4.3 -4.3)" fill="#fff" fill-rule="evenodd"></path><path d="M186.2,32A15.9,15.9,0,0,0,176,29c-5.4.6-10.5,4.2-9.9,9.9.2,2.4.5,12.8,1.4,17.1a4,4,0,0,0,2.6,3.2,3.1,3.1,0,0,0,3.7-1.6c.9-2.1-.1-4-.6-5.8a71.6,71.6,0,0,1-1.8-11.7c-.6-6.4,9.1-7.2,11.3-3.5-1.6,2.5.7,4.1,3.7,1.8s1.6-5-.3-6.5Z" transform="translate(-4.3 -4.3)" fill="#fff" fill-rule="evenodd"></path><path d="M199.4,59.9c13.4-2.3,18.5-23,1.9-30.1-17.3-5.6-18.1,33.5-1.9,30.1Zm-6.1-16.8c1.6-16.3,12.3-8.7,13.7,1.9s-16,16.9-13.7-1.9Z" transform="translate(-4.3 -4.3)" fill="#fff" fill-rule="evenodd"></path><path d="M218.7,38.5c-2.1,4.6-1.3,23.2,8.3,14.4,2.1-1.9,2.4-8.1,1.6-13.4-.2-1.2-1.2-4.9-1.6-6s.7-3.4,2.5-4a3.1,3.1,0,0,1,3.7,1.8c1,2.4.3,6.3.2,7.9-.3,4.8-1.1,10.6.6,13.7.7,1.3,1.7,1.5,1.8,2.4.1,3.5-4.1,5.8-5.6,3.6-.4-.6-.1-1.5-.7-2-7.9,7.1-16.6,1.5-16.4-8.6,0-2.2-.3-5.8.5-9s1-4.8,2.3-6.1,2.5-.5,3.1-.1.3,3.7-.3,5.3Z" transform="translate(-4.3 -4.3)" fill="#fff" fill-rule="evenodd"></path><path d="M253.9,54.3c1.4-4.8,3.1-12.6,2-15.5s-7.6-5.9-10.5-1.5c-1.8,2.7-1.9,12.4.4,18.1.6,1.4-.5,3.3-2.2,3.8-6.6,2.2-1.5-16.1-5.3-22-.8-1.3-1.8-1.4-2-2.3-.4-3.4,3.6-5.5,5.4-3.4.5.6.2,1.5.9,1.9,7.3-6.8,18.2-1.7,18.9,8a41,41,0,0,1-2.6,14.8,10.3,10.3,0,0,1-1.8,3,2.3,2.3,0,0,1-3.1.1c-1.2-.8-.6-3.5-.1-5.1Z" transform="translate(-4.3 -4.3)" fill="#fff" fill-rule="evenodd"></path><path d="M283,33c.6-5.2-1.6-20.5-5.6-20.9-1.1-.1-1.3-2.7-.6-4.3s2.5-2.1,5.4-.9c4.6,1.9,5,19.4,5.1,24.6s-.2,11.3.6,16.1a17.9,17.9,0,0,0,1.3,4.4c.8,1.9,1.7,3.2,1.1,4.3s-4.8,3.3-6,2.1-1.2-2.3-1.4-4c-6.9,11-18,2.4-19.5-8.3S271.2,24.2,283,33ZM272.2,53.4c8.7,6.3,11.5-10,7.1-16.1s-18.8,7-7.1,16.1Z" transform="translate(-4.3 -4.3)" fill="#fff" fill-rule="evenodd"></path><path d="M17.6,49.7C10.7,47.4,5.9,40.8,4.7,33.9,1.4,14.7,21.8-2.5,42.1,7c.2,4.3-1.8,10.4-7.2,12.3,27.2,17.2,3.9,52.3-24.6,40.8-5.2-2.7-2.4-7.5,3.1-4.7s14.3,2.1,19.4-.7a23,23,0,0,0,8.3-7.4,23.9,23.9,0,0,0,2-3.6c.4-1,1.8-5.2.7-5.7s-.4.2-.5.5a17.8,17.8,0,0,1-3.9,7.4A19.7,19.7,0,0,1,31,51.7c-4.1,1.5-8.8,1.7-15.3.3.4-.5,1.3-1.8,1.8-2.3ZM36.3,8.8a13.4,13.4,0,0,1,.2,1.9,9,9,0,0,1-3,7.5L32,19.6c7.7,4.8,11.7,15.2,7.2,22.5-6,9.8-17.9,7.6-24.5.9S8.8,26.8,13.7,20A28.4,28.4,0,0,1,36.3,8.8Z" transform="translate(-4.3 -4.3)" fill="#88be48" fill-rule="evenodd"></path><path d="M13.2,30.4c1.5-14.6,18.3-17.5,24.5,2S10.9,48,13.2,30.4ZM26.9,40c13.3.5,6.9-13.1-1.8-16.1S11.6,40,26.9,40Z" transform="translate(-4.3 -4.3)" fill="#fff" fill-rule="evenodd"></path></svg>
